{
  "accessors": [
    {
      "bufferView": 2,
      "componentType": 5126,
      "count": 22,
      "max": [
        39070.05078125,
        37157.828125,
        43681.64453125
      ],
      "min": [
        -39070.05078125,
        -37157.828125,
        -43681.64453125
      ],
      "type": "VEC3"
    },
    {
      "bufferView": 2,
      "byteOffset": 264,
      "componentType": 5126,
      "count": 22,
      "max": [
        0.89442718029022217,
        0.8506508469581604,
        1
      ],
      "min": [
        -0.89442718029022217,
        -0.8506508469581604,
        -1
      ],
      "type": "VEC3"
    },
    {
      "bufferView": 3,
      "componentType": 5126,
      "count": 22,
      "max": [
        0.95105665922164917,
        1,
        0.17609578371047974,
        1
      ],
      "min": [
        -0.95965021848678589,
        -1,
        -0.27639323472976685,
        1
      ],
      "type": "VEC4"
    },
    {
      "bufferView": 0,
      "componentType": 5125,
      "count": 60,
      "max": [
        21
      ],
      "min": [
        0
      ],
      "type": "SCALAR"
    },
    {
      "bufferView": 2,
      "byteOffset": 528,
      "componentType": 5126,
      "count": 4,
      "max": [
        346.251953125,
        288.22012329101562,
        -115.98257446289062
      ],
      "min": [
        -371.09567260742188,
        -429.12750244140625,
        -115.98257446289062
      ],
      "type": "VEC3"
    },
    {
      "bufferView": 2,
      "byteOffset": 576,
      "componentType": 5126,
      "count": 4,
      "max": [
        0,
        0,
        1
      ],
      "min": [
        0,
        0,
        1
      ],
      "type": "VEC3"
    },
    {
      "bufferView": 3,
      "byteOffset": 352,
      "componentType": 5126,
      "count": 4,
      "max": [
        1,
        1.2762674828081799e-07,
        0,
        1
      ],
      "min": [
        1,
        0,
        0,
        1
      ],
      "type": "VEC4"
    },
    {
      "bufferView": 1,
      "componentType": 5126,
      "count": 4,
      "max": [
        1,
        1
      ],
      "min": [
        0,
        0
      ],
      "type": "VEC2"
    },
    {
      "bufferView": 0,
      "byteOffset": 240,
      "componentType": 5125,
      "count": 6,
      "max": [
        3
      ],
      "min": [
        0
      ],
      "type": "SCALAR"
    },
    {
      "bufferView": 2,
      "byteOffset": 624,
      "componentType": 5126,
      "count": 519,
      "max": [
        194.20573425292969,
        261.6094970703125,
        541.55194091796875
      ],
      "min": [
        -272.837158203125,
        -154.9210205078125,
        10.270732879638672
      ],
      "type": "VEC3"
    },
    {
      "bufferView": 2,
      "byteOffset": 6852,
      "componentType": 5126,
      "count": 519,
      "max": [
        0.99691116809844971,
        0.98131102323532104,
        0.99943733215332031
      ],
      "min": [
        -0.99483823776245117,
        -0.99847251176834106,
        -0.214354008436203
      ],
      "type": "VEC3"
    },
    {
      "bufferView": 3,
      "byteOffset": 416,
      "componentType": 5126,
      "count": 519,
      "max": [
        0.99745571613311768,
        0.99394726753234863,
        0.96893978118896484,
        1
      ],
      "min": [
        -0.99870783090591431,
        -0.99942463636398315,
        -0.95995050668716431,
        1
      ],
      "type": "VEC4"
    },
    {
      "bufferView": 1,
      "byteOffset": 32,
      "componentType": 5126,
      "count": 519,
      "max": [
        0.99618208408355713,
        0.99559390544891357
      ],
      "min": [
        0.01029276754707098,
        0.005488949827849865
      ],
      "type": "VEC2"
    },
    {
      "bufferView": 0,
      "byteOffset": 264,
      "componentType": 5125,
      "count": 1515,
      "max": [
        518
      ],
      "min": [
        0
      ],
      "type": "SCALAR"
    },
    {
      "bufferView": 2,
      "byteOffset": 13080,
      "componentType": 5126,
      "count": 782,
      "max": [
        254.968017578125,
        131.22552490234375,
        120.4931640625
      ],
      "min": [
        -210.45538330078125,
        -281.58575439453125,
        -18.337017059326172
      ],
      "type": "VEC3"
    },
    {
      "bufferView": 2,
      "byteOffset": 22464,
      "componentType": 5126,
      "count": 782,
      "max": [
        0.99883884191513062,
        0.99484896659851074,
        0.99828881025314331
      ],
      "min": [
        -0.99435794353485107,
        -0.99936717748641968,
        -0.99997389316558838
      ],
      "type": "VEC3"
    },
    {
      "bufferView": 3,
      "byteOffset": 8720,
      "componentType": 5126,
      "count": 782,
      "max": [
        0.99580740928649902,
        0.99905794858932495,
        0.99336010217666626,
        1
      ],
      "min": [
        -0.9926033616065979,
        -0.99980151653289795,
        -0.97894924879074097,
        -1
      ],
      "type": "VEC4"
    },
    {
      "bufferView": 1,
      "byteOffset": 4184,
      "componentType": 5126,
      "count": 782,
      "max": [
        0.99726688861846924,
        0.9951930046081543
      ],
      "min": [
        0.006132206879556179,
        0.0019818679429590702
      ],
      "type": "VEC2"
    },
    {
      "bufferView": 0,
      "byteOffset": 6324,
      "componentType": 5125,
      "count": 2664,
      "max": [
        781
      ],
      "min": [
        0
      ],
      "type": "SCALAR"
    },
    {
      "bufferView": 2,
      "byteOffset": 31848,
      "componentType": 5126,
      "count": 439,
      "max": [
        -89.6600341796875,
        -115.43452453613281,
        107.6912841796875
      ],
      "min": [
        -231.59197998046875,
        -239.94639587402344,
        5.1412506103515625
      ],
      "type": "VEC3"
    },
    {
      "bufferView": 2,
      "byteOffset": 37116,
      "componentType": 5126,
      "count": 439,
      "max": [
        0.99914699792861938,
        0.998607337474823,
        1
      ],
      "min": [
        -0.98924988508224487,
        -0.98776674270629883,
        -1
      ],
      "type": "VEC3"
    },
    {
      "bufferView": 3,
      "byteOffset": 21232,
      "componentType": 5126,
      "count": 439,
      "max": [
        0.99605125188827515,
        0.81158912181854248,
        0.98281437158584595,
        1
      ],
      "min": [
        -0.99951237440109253,
        -0.97966480255126953,
        -0.99365228414535522,
        -1
      ],
      "type": "VEC4"
    },
    {
      "bufferView": 1,
      "byteOffset": 10440,
      "componentType": 5126,
      "count": 439,
      "max": [
        0.99677777290344238,
        0.99186933040618896
      ],
      "min": [
        0.019243588671088219,
        0.0082643656060099602
      ],
      "type": "VEC2"
    },
    {
      "bufferView": 0,
      "byteOffset": 16980,
      "componentType": 5125,
      "count": 960,
      "max": [
        438
      ],
      "min": [
        0
      ],
      "type": "SCALAR"
    },
    {
      "bufferView": 2,
      "byteOffset": 42384,
      "componentType": 5126,
      "count": 170,
      "max": [
        242.11248779296875,
        158.47488403320312,
        63.021644592285156
      ],
      "min": [
        -248.31600952148438,
        -308.90234375,
        -137.27020263671875
      ],
      "type": "VEC3"
    },
    {
      "bufferView": 2,
      "byteOffset": 44424,
      "componentType": 5126,
      "count": 170,
      "max": [
        0.96839809417724609,
        0.97471451759338379,
        0.99874740839004517
      ],
      "min": [
        -0.99633097648620605,
        -0.99308210611343384,
        -0.99722772836685181
      ],
      "type": "VEC3"
    },
    {
      "bufferView": 3,
      "byteOffset": 28256,
      "componentType": 5126,
      "count": 170,
      "max": [
        0.99506479501724243,
        0.98436558246612549,
        0.99643468856811523,
        1
      ],
      "min": [
        -0.9999353289604187,
        -0.98077958822250366,
        -0.85635024309158325,
        1
      ],
      "type": "VEC4"
    },
    {
      "bufferView": 1,
      "byteOffset": 13952,
      "componentType": 5126,
      "count": 170,
      "max": [
        0.99451905488967896,
        0.99344444274902344
      ],
      "min": [
        -0.26145127415657043,
        0.011927353218197823
      ],
      "type": "VEC2"
    },
    {
      "bufferView": 0,
      "byteOffset": 20820,
      "componentType": 5125,
      "count": 480,
      "max": [
        169
      ],
      "min": [
        0
      ],
      "type": "SCALAR"
    },
    {
      "bufferView": 2,
      "byteOffset": 46464,
      "componentType": 5126,
      "count": 804,
      "max": [
        287.78668212890625,
        183.0433349609375,
        103.90742492675781
      ],
      "min": [
        -268.01800537109375,
        -334.2265625,
        -29.173492431640625
      ],
      "type": "VEC3"
    },
    {
      "bufferView": 2,
      "byteOffset": 56112,
      "componentType": 5126,
      "count": 804,
      "max": [
        0.98828744888305664,
        0.99380254745483398,
        0.99967437982559204
      ],
      "min": [
        -0.99667596817016602,
        -0.9964480996131897,
        -0.77459663152694702
      ],
      "type": "VEC3"
    },
    {
      "bufferView": 3,
      "byteOffset": 30976,
      "componentType": 5126,
      "count": 804,
      "max": [
        0.99970918893814087,
        0.99981039762496948,
        0.51040142774581909,
        1
      ],
      "min": [
        -0.99896013736724854,
        -0.99717754125595093,
        -0.48984909057617188,
        -1
      ],
      "type": "VEC4"
    },
    {
      "bufferView": 1,
      "byteOffset": 15312,
      "componentType": 5126,
      "count": 804,
      "max": [
        0.99414336681365967,
        0.98998886346817017
      ],
      "min": [
        0.0095224715769290924,
        0.011599918827414513
      ],
      "type": "VEC2"
    },
    {
      "bufferView": 0,
      "byteOffset": 22740,
      "componentType": 5125,
      "count": 1914,
      "max": [
        803
      ],
      "min": [
        0
      ],
      "type": "SCALAR"
    },
    {
      "bufferView": 2,
      "byteOffset": 65760,
      "componentType": 5126,
      "count": 36,
      "max": [
        378.01370239257812,
        325.6544189453125,
        485.16937255859375
      ],
      "min": [
        -269.88381958007812,
        -306.9588623046875,
        -150.60108947753906
      ],
      "type": "VEC3"
    },
    {
      "bufferView": 2,
      "byteOffset": 66192,
      "componentType": 5126,
      "count": 36,
      "max": [
        0.86602526903152466,
        0.57357692718505859,
        0.13302204012870789
      ],
      "min": [
        -0.81915181875228882,
        -0.90867799520492554,
        0
      ],
      "type": "VEC3"
    },
    {
      "bufferView": 3,
      "byteOffset": 43840,
      "componentType": 5126,
      "count": 36,
      "max": [
        0.70710694789886475,
        0.86602532863616943,
        0,
        1
      ],
      "min": [
        -0.57357692718505859,
        -0.81915169954299927,
        -0.75440704822540283,
        1
      ],
      "type": "VEC4"
    },
    {
      "bufferView": 1,
      "byteOffset": 21744,
      "componentType": 5126,
      "count": 36,
      "max": [
        0.59096574783325195,
        1
      ],
      "min": [
        0,
        0
      ],
      "type": "VEC2"
    },
    {
      "bufferView": 0,
      "byteOffset": 30396,
      "componentType": 5125,
      "count": 54,
      "max": [
        35
      ],
      "min": [
        0
      ],
      "type": "SCALAR"
    }
  ],
  "asset": {
    "extras": {
      "author": "Dries Deryckere (https://sketchfab.com/deryckeredries)",
      "license": "CC-BY-4.0 (http://creativecommons.org/licenses/by/4.0/)",
      "source": "https://sketchfab.com/models/e5eb4867faba465d99deda487c56fbd6",
      "title": "Forest Scene"
    },
    "generator": "Sketchfab-3.29.3",
    "version": "2.0"
  },
  "bufferViews": [
    {
      "buffer": 0,
      "byteLength": 30612,
      "byteOffset": 0,
      "name": "floatBufferViews",
      "target": 34963
    },
    {
      "buffer": 0,
      "byteLength": 22032,
      "byteOffset": 30612,
      "byteStride": 8,
      "name": "floatBufferViews",
      "target": 34962
    },
    {
      "buffer": 0,
      "byteLength": 66624,
      "byteOffset": 52644,
      "byteStride": 12,
      "name": "floatBufferViews",
      "target": 34962
    },
    {
      "buffer": 0,
      "byteLength": 44416,
      "byteOffset": 119268,
      "byteStride": 16,
      "name": "floatBufferViews",
      "target": 34962
    }
  ],
  "buffers": [
    {
      "byteLength": 163684,
      "uri": "scene.bin"
    }
  ],
  "images": [
    {
      "uri": "textures/Material__22_baseColor.jpg"
    },
    {
      "uri": "textures/Material__22_emissive.jpg"
    },
    {
      "uri": "textures/Material__21_baseColor.jpg"
    },
    {
      "uri": "textures/Material__21_emissive.jpg"
    },
    {
      "uri": "textures/Material__43_baseColor.png"
    },
    {
      "uri": "textures/Material__43_emissive.jpg"
    },
    {
      "uri": "textures/Material__20_baseColor.jpg"
    },
    {
      "uri": "textures/Material__20_emissive.jpg"
    },
    {
      "uri": "textures/Material__23_baseColor.png"
    },
    {
      "uri": "textures/Material__23_emissive.jpg"
    },
    {
      "uri": "textures/Material__45_baseColor.png"
    },
    {
      "uri": "textures/Material__1_baseColor.png"
    },
    {
      "uri": "textures/Material__1_emissive.jpg"
    }
  ],
  "materials": [
    {
      "alphaCutoff": 1,
      "alphaMode": "MASK",
      "doubleSided": true,
      "emissiveFactor": [
        0,
        0,
        0
      ],
      "emissiveTexture": {
        "index": 12,
        "texCoord": 0
      },
      "name": "Material__1",
      "pbrMetallicRoughness": {
        "baseColorFactor": [
          1,
          1,
          1,
          1
        ],
        "baseColorTexture": {
          "index": 11,
          "texCoord": 0
        },
        "metallicFactor": 0,
        "roughnessFactor": 1
      }
    },
    {
      "doubleSided": true,
      "emissiveFactor": [
        0,
        0,
        0
      ],
      "emissiveTexture": {
        "index": 7,
        "texCoord": 0
      },
      "name": "Material__20",
      "pbrMetallicRoughness": {
        "baseColorFactor": [
          1,
          1,
          1,
          1
        ],
        "baseColorTexture": {
          "index": 6,
          "texCoord": 0
        },
        "metallicFactor": 0,
        "roughnessFactor": 1
      }
    },
    {
      "doubleSided": true,
      "emissiveFactor": [
        0,
        0,
        0
      ],
      "emissiveTexture": {
        "index": 3,
        "texCoord": 0
      },
      "name": "Material__21",
      "pbrMetallicRoughness": {
        "baseColorFactor": [
          1,
          1,
          1,
          1
        ],
        "baseColorTexture": {
          "index": 2,
          "texCoord": 0
        },
        "metallicFactor": 0,
        "roughnessFactor": 1
      }
    },
    {
      "doubleSided": true,
      "emissiveFactor": [
        0,
        0,
        0
      ],
      "emissiveTexture": {
        "index": 1,
        "texCoord": 0
      },
      "name": "Material__22",
      "pbrMetallicRoughness": {
        "baseColorFactor": [
          1,
          1,
          1,
          1
        ],
        "baseColorTexture": {
          "index": 0,
          "texCoord": 0
        },
        "metallicFactor": 0,
        "roughnessFactor": 1
      }
    },
    {
      "alphaCutoff": 1,
      "alphaMode": "MASK",
      "doubleSided": true,
      "emissiveFactor": [
        0,
        0,
        0
      ],
      "emissiveTexture": {
        "index": 9,
        "texCoord": 0
      },
      "name": "Material__23",
      "pbrMetallicRoughness": {
        "baseColorFactor": [
          1,
          1,
          1,
          1
        ],
        "baseColorTexture": {
          "index": 8,
          "texCoord": 0
        },
        "metallicFactor": 0,
        "roughnessFactor": 1
      }
    },
    {
      "doubleSided": true,
      "emissiveFactor": [
        0.10660793860000001,
        0.10660793860000001,
        0.10660793860000001
      ],
      "name": "Material__24",
      "pbrMetallicRoughness": {
        "baseColorFactor": [
          0,
          0,
          0,
          1
        ],
        "metallicFactor": 0,
        "roughnessFactor": 1
      }
    },
    {
      "alphaMode": "BLEND",
      "doubleSided": true,
      "emissiveFactor": [
        0,
        0,
        0
      ],
      "emissiveTexture": {
        "index": 5,
        "texCoord": 0
      },
      "name": "Material__43",
      "pbrMetallicRoughness": {
        "baseColorFactor": [
          1,
          1,
          1,
          0.20000000000000001
        ],
        "baseColorTexture": {
          "index": 4,
          "texCoord": 0
        },
        "metallicFactor": 0,
        "roughnessFactor": 1
      }
    },
    {
      "alphaMode": "BLEND",
      "doubleSided": false,
      "emissiveFactor": [
        0,
        0,
        0
      ],
      "name": "Material__45",
      "pbrMetallicRoughness": {
        "baseColorFactor": [
          0,
          0,
          0,
          1
        ],
        "baseColorTexture": {
          "index": 10,
          "texCoord": 0
        },
        "metallicFactor": 0,
        "roughnessFactor": 1
      }
    }
  ],
  "meshes": [
    {
      "primitives": [
        {
          "attributes": {
            "NORMAL": 1,
            "POSITION": 0,
            "TANGENT": 2
          },
          "indices": 3,
          "material": 5,
          "mode": 4
        }
      ]
    },
    {
      "primitives": [
        {
          "attributes": {
            "NORMAL": 5,
            "POSITION": 4,
            "TANGENT": 6,
            "TEXCOORD_0": 7
          },
          "indices": 8,
          "material": 7,
          "mode": 4
        }
      ]
    },
    {
      "primitives": [
        {
          "attributes": {
            "NORMAL": 10,
            "POSITION": 9,
            "TANGENT": 11,
            "TEXCOORD_0": 12
          },
          "indices": 13,
          "material": 0,
          "mode": 4
        }
      ]
    },
    {
      "primitives": [
        {
          "attributes": {
            "NORMAL": 15,
            "POSITION": 14,
            "TANGENT": 16,
            "TEXCOORD_0": 17
          },
          "indices": 18,
          "material": 1,
          "mode": 4
        }
      ]
    },
    {
      "primitives": [
        {
          "attributes": {
            "NORMAL": 20,
            "POSITION": 19,
            "TANGENT": 21,
            "TEXCOORD_0": 22
          },
          "indices": 23,
          "material": 2,
          "mode": 4
        }
      ]
    },
    {
      "primitives": [
        {
          "attributes": {
            "NORMAL": 25,
            "POSITION": 24,
            "TANGENT": 26,
            "TEXCOORD_0": 27
          },
          "indices": 28,
          "material": 3,
          "mode": 4
        }
      ]
    },
    {
      "primitives": [
        {
          "attributes": {
            "NORMAL": 30,
            "POSITION": 29,
            "TANGENT": 31,
            "TEXCOORD_0": 32
          },
          "indices": 33,
          "material": 4,
          "mode": 4
        }
      ]
    },
    {
      "primitives": [
        {
          "attributes": {
            "NORMAL": 35,
            "POSITION": 34,
            "TANGENT": 36,
            "TEXCOORD_0": 37
          },
          "indices": 38,
          "material": 6,
          "mode": 4
        }
      ]
    }
  ],
  "nodes": [
    {
      "children": [
        1
      ],
      "name": "RootNode (gltf orientation matrix)",
      "rotation": [
        -0.70710678118654746,
        -0,
        -0,
        0.70710678118654757
      ]
    },
    {
      "children": [
        2
      ],
      "name": "RootNode (model correction matrix)"
    },
    {
      "children": [
        3,
        4,
        5,
        6,
        7,
        8,
        9,
        10
      ],
      "name": "ForestScene.obj.cleaner"
    },
    {
      "mesh": 0,
      "name": ""
    },
    {
      "mesh": 1,
      "name": ""
    },
    {
      "mesh": 2,
      "name": ""
    },
    {
      "mesh": 3,
      "name": ""
    },
    {
      "mesh": 4,
      "name": ""
    },
    {
      "mesh": 5,
      "name": ""
    },
    {
      "mesh": 6,
      "name": ""
    },
    {
      "mesh": 7,
      "name": ""
    }
  ],
  "samplers": [
    {
      "magFilter": 9729,
      "minFilter": 9987,
      "wrapS": 10497,
      "wrapT": 10497
    },
    {
      "magFilter": 9728,
      "minFilter": 9728,
      "wrapS": 10497,
      "wrapT": 10497
    }
  ],
  "scene": 0,
  "scenes": [
    {
      "name": "OSG_Scene",
      "nodes": [
        0
      ]
    }
  ],
  "textures": [
    {
      "sampler": 0,
      "source": 0
    },
    {
      "sampler": 0,
      "source": 1
    },
    {
      "sampler": 0,
      "source": 2
    },
    {
      "sampler": 0,
      "source": 3
    },
    {
      "sampler": 1,
      "source": 4
    },
    {
      "sampler": 0,
      "source": 5
    },
    {
      "sampler": 0,
      "source": 6
    },
    {
      "sampler": 0,
      "source": 7
    },
    {
      "sampler": 1,
      "source": 8
    },
    {
      "sampler": 0,
      "source": 9
    },
    {
      "sampler": 1,
      "source": 10
    },
    {
      "sampler": 1,
      "source": 11
    },
    {
      "sampler": 0,
      "source": 12
    }
  ]
}

